# Blender v2.76 (sub 0) OBJ File: 'chair.blend'
# www.blender.org
mtllib chair.mtl
o Cube.003
v 0.051611 0.063623 -0.089860
v 0.000000 0.063623 -0.119657
v -0.051611 0.063623 -0.089860
v -0.051611 0.063623 -0.030264
v 0.000000 0.063623 -0.000466
v 0.051611 0.063623 -0.030264
v 0.000000 0.006988 -0.119657
v 0.051611 0.006988 -0.089860
v 0.051611 0.006988 -0.030264
v 0.000000 0.006988 -0.000466
v -0.051611 0.006988 -0.030264
v -0.051611 0.006988 -0.089860
v 0.128566 -0.006945 -0.314613
v 0.128566 0.023339 -0.314613
v 0.156165 0.023339 -0.298679
v 0.156165 -0.006945 -0.298679
v 0.284731 -0.006945 -0.075996
v 0.284731 0.023339 -0.075996
v 0.284731 0.023339 -0.044128
v 0.284731 -0.006945 -0.044128
v 0.156165 -0.006945 0.178555
v 0.156165 0.023339 0.178555
v 0.128566 0.023339 0.194489
v 0.128566 -0.006945 0.194489
v -0.128566 -0.006945 0.194489
v -0.128566 0.023339 0.194489
v -0.156164 0.023339 0.178555
v -0.156164 -0.006945 0.178555
v -0.156164 -0.006945 -0.298679
v -0.156164 0.023339 -0.298679
v -0.128566 0.023339 -0.314613
v -0.128566 -0.006945 -0.314613
v -0.284731 -0.006945 -0.044128
v -0.284731 0.023339 -0.044128
v -0.284731 0.023339 -0.075996
v -0.284731 -0.006945 -0.075996
v 0.000000 0.354109 -0.023347
v 0.000000 0.055714 -0.023347
v -0.007163 0.055714 -0.024053
v -0.007163 0.354109 -0.024053
v -0.014050 0.055714 -0.026142
v -0.014050 0.354109 -0.026142
v -0.020397 0.055714 -0.029535
v -0.020397 0.354109 -0.029535
v -0.025961 0.055714 -0.034101
v -0.025961 0.354109 -0.034101
v -0.030527 0.055714 -0.039664
v -0.030527 0.354109 -0.039664
v -0.033920 0.055714 -0.046012
v -0.033920 0.354109 -0.046012
v -0.036009 0.055714 -0.052899
v -0.036009 0.354109 -0.052899
v -0.036714 0.055714 -0.060062
v -0.036714 0.354109 -0.060062
v -0.036009 0.055714 -0.067225
v -0.036009 0.354109 -0.067225
v -0.033920 0.055714 -0.074112
v -0.033920 0.354109 -0.074112
v -0.030527 0.055714 -0.080459
v -0.030527 0.354109 -0.080459
v -0.025961 0.055714 -0.086023
v -0.025961 0.354109 -0.086023
v -0.020397 0.055714 -0.090589
v -0.020397 0.354109 -0.090589
v -0.014050 0.055714 -0.093982
v -0.014050 0.354109 -0.093982
v -0.007163 0.055714 -0.096071
v -0.007163 0.354109 -0.096071
v 0.000000 0.055714 -0.096776
v 0.000000 0.354109 -0.096776
v 0.007163 0.055714 -0.096071
v 0.007163 0.354109 -0.096071
v 0.014050 0.055714 -0.093982
v 0.014050 0.354109 -0.093982
v 0.020398 0.055714 -0.090589
v 0.020398 0.354109 -0.090589
v 0.025961 0.055714 -0.086023
v 0.025961 0.354109 -0.086023
v 0.030527 0.055714 -0.080459
v 0.030527 0.354109 -0.080459
v 0.033920 0.055714 -0.074112
v 0.033920 0.354109 -0.074112
v 0.036009 0.055714 -0.067225
v 0.036009 0.354109 -0.067225
v 0.036715 0.055714 -0.060062
v 0.036715 0.354109 -0.060062
v 0.036009 0.055714 -0.052899
v 0.036009 0.354109 -0.052899
v 0.033920 0.055714 -0.046012
v 0.033920 0.354109 -0.046012
v 0.030527 0.055714 -0.039664
v 0.030527 0.354109 -0.039664
v 0.025961 0.055714 -0.034101
v 0.025961 0.354109 -0.034101
v 0.020397 0.055714 -0.029535
v 0.020397 0.354109 -0.029535
v 0.014050 0.055714 -0.026142
v 0.014050 0.354109 -0.026142
v 0.007163 0.055714 -0.024053
v 0.007163 0.354109 -0.024053
v 0.000000 0.490416 -0.011367
v -0.009500 0.490416 -0.012303
v -0.018635 0.490416 -0.015074
v -0.027053 0.490416 -0.019574
v -0.034432 0.490416 -0.025629
v -0.040488 0.490416 -0.033008
v -0.044988 0.490416 -0.041427
v -0.047759 0.490416 -0.050562
v -0.048695 0.490416 -0.060062
v -0.047759 0.490416 -0.069562
v -0.044988 0.490416 -0.078697
v -0.040488 0.490416 -0.087115
v -0.034432 0.490416 -0.094494
v -0.027053 0.490416 -0.100550
v -0.018635 0.490416 -0.105050
v -0.009500 0.490416 -0.107821
v 0.000000 0.490416 -0.108757
v 0.009500 0.490416 -0.107821
v 0.018635 0.490416 -0.105050
v 0.027053 0.490416 -0.100550
v 0.034433 0.490416 -0.094494
v 0.040488 0.490416 -0.087115
v 0.044988 0.490416 -0.078697
v 0.047759 0.490416 -0.069562
v 0.048695 0.490416 -0.060062
v 0.047759 0.490416 -0.050562
v 0.044988 0.490416 -0.041427
v 0.040488 0.490416 -0.033008
v 0.034432 0.490416 -0.025629
v 0.027053 0.490416 -0.019574
v 0.018635 0.490416 -0.015074
v 0.009500 0.490416 -0.012303
v -0.444022 0.603974 -0.026413
v -0.444022 0.603974 -0.093711
v -0.412849 0.524566 -0.093711
v -0.412849 0.524566 -0.026413
v -0.376724 0.603974 -0.093711
v -0.376724 0.524566 -0.093711
v -0.376724 0.603974 -0.026413
v -0.376724 0.524566 -0.026413
v -0.376724 0.923577 -0.199364
v -0.376724 0.859844 -0.199364
v -0.376724 0.859844 -0.305018
v -0.376724 0.899942 -0.305018
v -0.376724 0.923577 -0.026413
v -0.376724 0.923577 -0.093711
v -0.444022 0.923577 -0.093711
v -0.444022 0.923577 -0.026413
v -0.376724 0.859844 -0.026413
v -0.376724 0.859844 -0.093711
v -0.444022 0.859844 -0.093711
v -0.444022 0.859844 -0.026413
v -0.444022 0.923577 0.079241
v -0.444022 0.859844 0.079241
v -0.444022 0.859844 0.184894
v -0.444022 0.897609 0.184894
v -0.444022 0.859844 -0.305018
v -0.444022 0.899942 -0.305018
v -0.376724 0.859844 0.184894
v -0.376724 0.897609 0.184894
v -0.444022 0.859844 -0.199364
v -0.376724 0.923577 0.079241
v -0.444022 0.923577 -0.199364
v -0.376724 0.859844 0.079241
v 0.444022 0.603974 -0.026413
v 0.412849 0.524566 -0.026413
v 0.412849 0.524566 -0.093711
v 0.444022 0.603974 -0.093711
v 0.376724 0.524566 -0.093711
v 0.376724 0.603974 -0.093711
v 0.376724 0.524566 -0.026413
v 0.376724 0.603974 -0.026413
v 0.376724 0.923577 -0.199364
v 0.376724 0.899942 -0.305018
v 0.376724 0.859844 -0.305018
v 0.376724 0.859844 -0.199364
v 0.376724 0.923577 -0.026413
v 0.444022 0.923577 -0.026413
v 0.444022 0.923577 -0.093711
v 0.376724 0.923577 -0.093711
v 0.376724 0.859844 -0.026413
v 0.376724 0.859844 -0.093711
v 0.444022 0.859844 -0.093711
v 0.444022 0.859844 -0.026413
v 0.444022 0.923577 0.079241
v 0.444022 0.897609 0.184894
v 0.444022 0.859844 0.184894
v 0.444022 0.859844 0.079241
v 0.444022 0.899942 -0.305018
v 0.444022 0.859844 -0.305018
v 0.376724 0.897609 0.184894
v 0.376724 0.859844 0.184894
v 0.444022 0.859844 -0.199364
v 0.376724 0.923577 0.079241
v 0.444022 0.923577 -0.199364
v 0.376724 0.859844 0.079241
v -0.379786 1.170339 0.427280
v -0.379786 1.182157 0.326472
v -0.315862 0.508913 0.247542
v -0.315862 0.497095 0.348350
v 0.189893 1.177214 0.368632
v 0.379786 1.182157 0.326472
v 0.315862 0.508913 0.247542
v 0.157931 0.508913 0.247542
v 0.379786 1.170339 0.427280
v 0.315862 0.497095 0.348350
v -0.189893 1.170339 0.427280
v -0.157931 0.497095 0.348350
v 0.157931 0.497095 0.348350
v -0.136932 1.783878 0.546256
v -0.136932 1.795697 0.445448
v -0.273863 1.764233 0.441759
v -0.273863 1.752414 0.542567
v -0.189893 1.464096 0.461720
v -0.379786 1.464096 0.461720
v 0.379786 1.475915 0.360911
v 0.379786 1.464096 0.461720
v 0.189893 1.470972 0.403072
v -0.379786 1.475915 0.360911
v 0.136932 1.795697 0.445448
v 0.273863 1.764233 0.441759
v 0.273863 1.752414 0.542567
v 0.136932 1.783878 0.546256
v 0.000000 1.791056 0.547098
v 0.000000 1.464096 0.461720
v 0.189893 1.464096 0.461720
v 0.000000 1.802875 0.446289
v 0.000000 1.470972 0.403072
v -0.189893 1.470972 0.403072
v 0.000000 1.177214 0.368632
v -0.189893 1.177214 0.368632
v 0.000000 1.170339 0.427280
v 0.189893 1.170339 0.427280
v -0.157931 0.508913 0.247542
v 0.000000 0.508913 0.247542
v 0.000000 0.497095 0.348350
v 0.382832 0.521911 -0.063536
v 0.382831 0.602158 -0.057727
v 0.314406 0.577834 0.278273
v 0.314406 0.497587 0.272464
v 0.382832 0.535732 -0.254452
v 0.382832 0.615979 -0.248643
v 0.333627 0.545677 -0.391829
v 0.333627 0.625924 -0.386019
v 0.191416 0.629800 -0.439559
v 0.000000 0.629800 -0.439559
v 0.000000 0.652988 -0.245964
v 0.191416 0.652988 -0.245964
v 0.191416 0.549553 -0.445369
v 0.191416 0.497810 -0.254452
v 0.000000 0.497810 -0.254453
v 0.000000 0.549553 -0.445369
v 0.191416 0.483989 -0.063536
v 0.000000 0.483989 -0.063536
v 0.000000 0.639167 -0.055048
v 0.191416 0.639167 -0.055048
v 0.191416 0.494269 0.318296
v 0.191415 0.574516 0.324105
v 0.000000 0.574516 0.324105
v 0.000000 0.494269 0.318296
v -0.382831 0.521911 -0.063536
v -0.314406 0.497587 0.272464
v -0.314406 0.577834 0.278273
v -0.382831 0.602158 -0.057727
v -0.382831 0.535732 -0.254452
v -0.382832 0.615979 -0.248643
v -0.333627 0.545677 -0.391829
v -0.333627 0.625924 -0.386019
v -0.191416 0.629800 -0.439559
v -0.191416 0.652988 -0.245964
v -0.191416 0.549553 -0.445369
v -0.191416 0.497810 -0.254452
v -0.191416 0.483989 -0.063536
v -0.191416 0.639167 -0.055048
v -0.191416 0.494269 0.318296
v -0.191415 0.574516 0.324105
vn 0.000000 1.000000 0.000000
vn 0.000000 -1.000000 -0.000000
vn 0.500000 0.000000 -0.866000
vn -0.834800 0.000000 -0.550500
vn 0.085100 0.985400 -0.147500
vn 0.894200 0.000000 0.447700
vn -0.029800 -0.998200 0.051700
vn 1.000000 0.000000 0.000000
vn 0.059400 0.000000 -0.998200
vn 0.170300 0.985400 0.000000
vn 0.059400 -0.000000 0.998200
vn -0.059700 -0.998200 -0.000000
vn 0.500000 0.000000 0.866000
vn 0.894200 0.000000 -0.447700
vn 0.085100 0.985400 0.147500
vn -0.834800 0.000000 0.550500
vn -0.029800 -0.998200 -0.051700
vn -0.500000 0.000000 0.866000
vn 0.834800 0.000000 0.550500
vn -0.085100 0.985400 0.147500
vn -0.894200 0.000000 -0.447700
vn 0.029800 -0.998200 -0.051700
vn -0.500000 0.000000 -0.866000
vn -0.894200 0.000000 0.447700
vn -0.085100 0.985400 -0.147500
vn 0.834800 0.000000 -0.550500
vn 0.029800 -0.998200 0.051700
vn -1.000000 0.000000 0.000000
vn -0.059400 -0.000000 0.998200
vn -0.170300 0.985400 0.000000
vn -0.059400 0.000000 -0.998200
vn 0.059700 -0.998200 -0.000000
vn 0.098100 0.000000 -0.995200
vn 0.290300 0.000000 -0.956900
vn 0.471400 0.000000 -0.881900
vn 0.634400 0.000000 -0.773000
vn 0.773000 0.000000 -0.634400
vn 0.881900 0.000000 -0.471400
vn 0.956900 0.000000 -0.290300
vn 0.995200 0.000000 -0.097900
vn 0.995200 -0.000000 0.097900
vn 0.956900 -0.000000 0.290300
vn 0.881900 -0.000000 0.471400
vn 0.773000 -0.000000 0.634400
vn 0.634400 -0.000000 0.773000
vn 0.471400 -0.000000 0.881900
vn 0.290300 -0.000000 0.956900
vn 0.097900 -0.000000 0.995200
vn -0.097900 -0.000000 0.995200
vn -0.290300 -0.000000 0.956900
vn -0.471400 -0.000000 0.881900
vn -0.634400 -0.000000 0.773000
vn -0.773000 -0.000000 0.634400
vn -0.881900 -0.000000 0.471400
vn -0.956900 -0.000000 0.290300
vn -0.995200 -0.000000 0.098100
vn -0.995200 0.000000 -0.098100
vn -0.956900 0.000000 -0.290300
vn -0.881900 0.000000 -0.471400
vn -0.773000 0.000000 -0.634400
vn -0.634400 0.000000 -0.773000
vn -0.471400 0.000000 -0.881900
vn -0.098100 0.000000 -0.995200
vn -0.290300 0.000000 -0.956900
vn -0.289200 0.087100 -0.953300
vn -0.097700 0.087100 -0.991400
vn -0.469600 0.087100 -0.878500
vn -0.631900 0.087100 -0.770100
vn -0.770000 0.087100 -0.632000
vn -0.878600 0.087100 -0.469600
vn -0.953300 0.087100 -0.289200
vn -0.991400 0.087100 -0.097700
vn -0.991400 0.087100 0.097700
vn -0.953300 0.087100 0.289200
vn -0.878500 0.087100 0.469600
vn -0.770100 0.087100 0.631900
vn -0.632000 0.087100 0.770100
vn -0.469600 0.087100 0.878600
vn -0.289200 0.087100 0.953300
vn -0.097600 0.087100 0.991400
vn 0.097600 0.087100 0.991400
vn 0.289200 0.087100 0.953300
vn 0.469600 0.087100 0.878500
vn 0.632000 0.087100 0.770100
vn 0.770100 0.087100 0.632000
vn 0.878500 0.087100 0.469600
vn 0.953300 0.087100 0.289200
vn 0.991400 0.087100 0.097600
vn 0.991400 0.087100 -0.097600
vn 0.953300 0.087100 -0.289200
vn 0.878600 0.087100 -0.469600
vn 0.770000 0.087100 -0.632000
vn 0.631900 0.087100 -0.770100
vn 0.469600 0.087100 -0.878500
vn 0.289200 0.087100 -0.953300
vn 0.097700 0.087100 -0.991400
vn -0.930800 -0.365400 0.000000
vn 0.000000 0.000000 -1.000000
vn 0.000000 -0.000000 1.000000
vn 0.000000 0.971100 0.238700
vn 0.000000 0.975900 -0.218300
vn 0.930800 -0.365400 0.000000
vn -0.995600 -0.093200 -0.010900
vn -0.121000 0.154800 -0.980500
vn 0.995600 -0.093200 -0.010900
vn 0.000000 -0.116400 0.993200
vn 0.000000 -0.993200 -0.116400
vn -0.225400 0.967600 0.113400
vn -0.218200 0.113600 -0.969300
vn -0.941400 0.334900 0.039300
vn -0.123900 0.164600 -0.978500
vn 0.941400 0.334900 0.039300
vn 0.014700 -0.266000 0.963900
vn -0.003100 -0.254300 0.967100
vn -0.000300 0.129300 -0.991600
vn 0.000000 0.129300 -0.991600
vn 0.000000 0.116400 -0.993200
vn 0.052700 0.991800 0.116300
vn 0.000000 0.178300 -0.984000
vn 0.225400 0.967600 0.113400
vn -0.014700 -0.266000 0.963900
vn 0.000300 0.129300 -0.991600
vn 0.121000 0.154800 -0.980500
vn 0.218200 0.113600 -0.969300
vn 0.123900 0.164600 -0.978500
vn 0.003100 -0.254300 0.967100
vn -0.052700 0.991800 0.116300
vn 0.980000 -0.014400 0.198500
vn 0.941700 0.024300 -0.335500
vn 0.000000 0.992900 -0.118900
vn 0.000000 -0.965200 -0.261600
vn 0.000000 -0.997400 -0.072200
vn 0.000000 0.997400 0.072200
vn 0.000000 0.072200 -0.997400
vn 0.000000 -0.072200 0.997400
vn 0.000000 0.985800 0.168100
vn 0.000000 -0.999600 0.026900
vn 0.129000 -0.991600 -0.007100
vn 0.189900 0.981800 0.003100
vn 0.350000 -0.067600 0.934300
vn 0.353100 0.067600 -0.933100
vn 0.190300 0.979200 0.070900
vn 0.193800 -0.978500 -0.070800
vn 0.131500 -0.970500 -0.202100
vn 0.071700 0.990400 -0.118600
vn 0.126100 0.982900 0.134300
vn -0.980000 -0.014400 0.198500
vn -0.941700 0.024300 -0.335500
vn -0.129000 -0.991600 -0.007100
vn -0.189900 0.981800 0.003100
vn -0.350000 -0.067600 0.934300
vn -0.353100 0.067600 -0.933100
vn -0.190300 0.979200 0.070900
vn -0.193800 -0.978500 -0.070800
vn -0.131500 -0.970500 -0.202100
vn -0.071700 0.990400 -0.118600
vn -0.126100 0.982900 0.134300
usemtl Material.001
s 1
f 1//1 2//1 3//1 4//1 5//1 6//1
f 7//2 8//2 9//2 10//2 11//2 12//2
f 13//3 14//3 15//3 16//3
f 2//4 14//4 13//4 7//4
f 1//5 15//5 14//5 2//5
f 8//6 16//6 15//6 1//6
f 7//7 13//7 16//7 8//7
f 17//8 18//8 19//8 20//8
f 1//9 18//9 17//9 8//9
f 6//10 19//10 18//10 1//10
f 9//11 20//11 19//11 6//11
f 8//12 17//12 20//12 9//12
f 21//13 22//13 23//13 24//13
f 6//14 22//14 21//14 9//14
f 5//15 23//15 22//15 6//15
f 10//16 24//16 23//16 5//16
f 9//17 21//17 24//17 10//17
f 25//18 26//18 27//18 28//18
f 5//19 26//19 25//19 10//19
f 4//20 27//20 26//20 5//20
f 11//21 28//21 27//21 4//21
f 10//22 25//22 28//22 11//22
f 29//23 30//23 31//23 32//23
f 3//24 30//24 29//24 12//24
f 2//25 31//25 30//25 3//25
f 7//26 32//26 31//26 2//26
f 12//27 29//27 32//27 7//27
f 33//28 34//28 35//28 36//28
f 4//29 34//29 33//29 11//29
f 3//30 35//30 34//30 4//30
f 12//31 36//31 35//31 3//31
f 11//32 33//32 36//32 12//32
f 37//33 38//33 39//33 40//33
f 40//34 39//34 41//34 42//34
f 42//35 41//35 43//35 44//35
f 44//36 43//36 45//36 46//36
f 46//37 45//37 47//37 48//37
f 48//38 47//38 49//38 50//38
f 50//39 49//39 51//39 52//39
f 52//40 51//40 53//40 54//40
f 54//41 53//41 55//41 56//41
f 56//42 55//42 57//42 58//42
f 58//43 57//43 59//43 60//43
f 60//44 59//44 61//44 62//44
f 62//45 61//45 63//45 64//45
f 64//46 63//46 65//46 66//46
f 66//47 65//47 67//47 68//47
f 68//48 67//48 69//48 70//48
f 70//49 69//49 71//49 72//49
f 72//50 71//50 73//50 74//50
f 74//51 73//51 75//51 76//51
f 76//52 75//52 77//52 78//52
f 78//53 77//53 79//53 80//53
f 80//54 79//54 81//54 82//54
f 82//55 81//55 83//55 84//55
f 84//56 83//56 85//56 86//56
f 86//57 85//57 87//57 88//57
f 88//58 87//58 89//58 90//58
f 90//59 89//59 91//59 92//59
f 92//60 91//60 93//60 94//60
f 94//61 93//61 95//61 96//61
f 96//62 95//62 97//62 98//62
f 39//1 38//1 99//1 97//1 95//1 93//1 91//1 89//1 87//1 85//1 83//1 81//1 79//1 77//1 75//1 73//1 71//1 69//1 67//1 65//1 63//1 61//1 59//1 57//1 55//1 53//1 51//1 49//1 47//1 45//1 43//1 41//1
f 100//63 99//63 38//63 37//63
f 98//64 97//64 99//64 100//64
f 101//2 102//2 103//2 104//2 105//2 106//2 107//2 108//2 109//2 110//2 111//2 112//2 113//2 114//2 115//2 116//2 117//2 118//2 119//2 120//2 121//2 122//2 123//2 124//2 125//2 126//2 127//2 128//2 129//2 130//2 131//2 132//2
f 131//65 98//65 100//65 132//65
f 132//66 100//66 37//66 101//66
f 130//67 96//67 98//67 131//67
f 129//68 94//68 96//68 130//68
f 128//69 92//69 94//69 129//69
f 127//70 90//70 92//70 128//70
f 126//71 88//71 90//71 127//71
f 125//72 86//72 88//72 126//72
f 124//73 84//73 86//73 125//73
f 123//74 82//74 84//74 124//74
f 122//75 80//75 82//75 123//75
f 121//76 78//76 80//76 122//76
f 120//77 76//77 78//77 121//77
f 119//78 74//78 76//78 120//78
f 118//79 72//79 74//79 119//79
f 117//80 70//80 72//80 118//80
f 116//81 68//81 70//81 117//81
f 115//82 66//82 68//82 116//82
f 114//83 64//83 66//83 115//83
f 113//84 62//84 64//84 114//84
f 112//85 60//85 62//85 113//85
f 111//86 58//86 60//86 112//86
f 110//87 56//87 58//87 111//87
f 109//88 54//88 56//88 110//88
f 108//89 52//89 54//89 109//89
f 107//90 50//90 52//90 108//90
f 106//91 48//91 50//91 107//91
f 105//92 46//92 48//92 106//92
f 104//93 44//93 46//93 105//93
f 103//94 42//94 44//94 104//94
f 102//95 40//95 42//95 103//95
f 101//96 37//96 40//96 102//96
f 133//97 134//97 135//97 136//97
f 134//98 137//98 138//98 135//98
f 137//8 139//8 140//8 138//8
f 139//99 133//99 136//99 140//99
f 136//2 135//2 138//2 140//2
f 141//8 142//8 143//8 144//8
f 145//1 146//1 147//1 148//1
f 149//8 150//8 146//8 145//8
f 151//28 152//28 148//28 147//28
f 153//28 154//28 155//28 156//28
f 143//98 157//98 158//98 144//98
f 155//99 159//99 160//99 156//99
f 142//2 161//2 157//2 143//2
f 162//100 153//100 156//100 160//100
f 163//101 141//101 144//101 158//101
f 164//8 162//8 160//8 159//8
f 161//28 163//28 158//28 157//28
f 154//2 164//2 159//2 155//2
f 151//28 147//28 163//28 161//28
f 147//1 146//1 141//1 163//1
f 150//2 151//2 161//2 142//2
f 146//8 150//8 142//8 141//8
f 152//2 149//2 164//2 154//2
f 149//8 145//8 162//8 164//8
f 145//1 148//1 153//1 162//1
f 148//28 152//28 154//28 153//28
f 149//99 152//99 133//99 139//99
f 150//8 149//8 139//8 137//8
f 151//98 150//98 137//98 134//98
f 152//28 151//28 134//28 133//28
f 165//102 166//102 167//102 168//102
f 168//98 167//98 169//98 170//98
f 170//28 169//28 171//28 172//28
f 172//99 171//99 166//99 165//99
f 166//2 171//2 169//2 167//2
f 173//28 174//28 175//28 176//28
f 177//1 178//1 179//1 180//1
f 181//28 177//28 180//28 182//28
f 183//8 179//8 178//8 184//8
f 185//8 186//8 187//8 188//8
f 175//98 174//98 189//98 190//98
f 187//99 186//99 191//99 192//99
f 176//2 175//2 190//2 193//2
f 194//100 191//100 186//100 185//100
f 195//101 189//101 174//101 173//101
f 196//28 192//28 191//28 194//28
f 193//8 190//8 189//8 195//8
f 188//2 187//2 192//2 196//2
f 183//8 193//8 195//8 179//8
f 179//1 195//1 173//1 180//1
f 182//2 176//2 193//2 183//2
f 180//28 173//28 176//28 182//28
f 184//2 188//2 196//2 181//2
f 181//28 196//28 194//28 177//28
f 177//1 194//1 185//1 178//1
f 178//8 185//8 188//8 184//8
f 181//99 172//99 165//99 184//99
f 182//28 170//28 172//28 181//28
f 183//98 168//98 170//98 182//98
f 184//8 165//8 168//8 183//8
f 197//103 198//103 199//103 200//103
f 201//104 202//104 203//104 204//104
f 202//105 205//105 206//105 203//105
f 207//106 197//106 200//106 208//106
f 209//107 204//107 203//107 206//107
f 210//108 211//108 212//108 213//108
f 214//106 215//106 197//106 207//106
f 216//8 217//8 205//8 202//8
f 218//109 216//109 202//109 201//109
f 215//28 219//28 198//28 197//28
f 213//110 212//110 219//110 215//110
f 220//111 221//111 216//111 218//111
f 221//112 222//112 217//112 216//112
f 210//113 213//113 215//113 214//113
f 223//114 224//114 225//114 226//114
f 211//115 227//116 228//116 229//115
f 229//117 228//117 230//117 231//117
f 226//106 225//106 232//106 233//106
f 223//118 220//118 227//118 224//118
f 208//107 234//107 235//107 236//107
f 233//106 232//106 236//106 209//106
f 231//119 230//119 235//119 234//119
f 205//106 233//106 209//106 206//106
f 222//120 221//120 220//120 223//120
f 217//106 226//106 233//106 205//106
f 222//121 223//121 226//121 217//121
f 227//116 220//122 218//122 228//116
f 228//117 218//117 201//117 230//117
f 236//107 235//107 204//107 209//107
f 230//119 201//119 204//119 235//119
f 198//123 231//123 234//123 199//123
f 200//107 199//107 234//107 208//107
f 219//124 229//124 231//124 198//124
f 212//125 211//125 229//125 219//125
f 224//126 210//126 214//126 225//126
f 225//106 214//106 207//106 232//106
f 224//127 227//127 211//127 210//127
f 232//106 207//106 208//106 236//106
f 237//128 238//128 239//128 240//128
f 241//8 242//8 238//8 237//8
f 243//129 244//129 242//129 241//129
f 245//130 246//130 247//130 248//130
f 249//131 250//131 251//131 252//131
f 250//132 253//132 254//132 251//132
f 248//133 247//133 255//133 256//133
f 245//134 249//134 252//134 246//134
f 257//135 258//135 259//135 260//135
f 256//136 255//136 259//136 258//136
f 253//137 257//137 260//137 254//137
f 237//138 240//138 257//138 253//138
f 242//139 244//139 248//139
f 240//140 239//140 258//140 257//140
f 244//141 243//141 249//141 245//141
f 242//142 248//142 256//142 238//142
f 241//143 237//143 253//143 250//143
f 243//144 241//144 250//144 249//144
f 245//145 248//145 244//145
f 239//146 238//146 256//146 258//146
f 261//147 262//147 263//147 264//147
f 265//28 261//28 264//28 266//28
f 267//148 265//148 266//148 268//148
f 269//130 270//130 247//130 246//130
f 271//131 252//131 251//131 272//131
f 272//132 251//132 254//132 273//132
f 270//133 274//133 255//133 247//133
f 269//134 246//134 252//134 271//134
f 275//135 260//135 259//135 276//135
f 274//136 276//136 259//136 255//136
f 273//137 254//137 260//137 275//137
f 261//149 273//149 275//149 262//149
f 266//150 270//150 268//150
f 262//151 275//151 276//151 263//151
f 268//152 269//152 271//152 267//152
f 266//153 264//153 274//153 270//153
f 265//154 272//154 273//154 261//154
f 267//155 271//155 272//155 265//155
f 269//156 268//156 270//156
f 263//157 276//157 274//157 264//157
