# Blender v2.75 (sub 0) OBJ File: 'desk.blend'
# www.blender.org
mtllib desk.mtl
o Cube_Cube.002
v -0.750000 0.000000 0.350000
v -0.750000 0.906473 0.350000
v -0.750000 0.000000 -0.350000
v -0.750000 0.906473 -0.350000
v 0.750000 0.000000 0.350000
v 0.750000 0.906473 0.350000
v 0.750000 0.000000 -0.350000
v 0.750000 0.906473 -0.350000
v -0.644641 0.906473 -0.350000
v 0.644641 0.906473 -0.350000
v 0.644641 0.000000 -0.350000
v -0.644641 0.000000 -0.350000
v 0.644641 0.906473 0.350000
v -0.644641 0.906473 0.350000
v -0.644641 0.000000 0.350000
v 0.644641 0.000000 0.350000
v -0.750000 0.906473 0.263599
v -0.750000 0.906473 -0.263599
v -0.750000 0.000000 -0.263599
v -0.750000 0.000000 0.263599
v 0.750000 0.906473 -0.263599
v 0.750000 0.906473 0.263599
v 0.750000 0.000000 0.263599
v 0.750000 0.000000 -0.263599
v 0.644641 0.906473 -0.263599
v 0.644641 0.906473 0.263599
v -0.644641 0.906473 -0.263599
v -0.644641 0.906473 0.263599
v -0.644641 0.000000 -0.263599
v -0.644641 0.000000 0.263599
v 0.644641 0.000000 -0.263599
v 0.644641 0.000000 0.263599
v -0.750000 0.811235 0.350000
v -0.750000 0.811235 -0.350000
v 0.750000 0.811235 -0.350000
v 0.750000 0.811235 0.350000
v 0.644641 0.811235 0.350000
v -0.644641 0.811235 0.350000
v -0.644641 0.811235 -0.350000
v 0.644641 0.811235 -0.350000
v 0.750000 0.811235 -0.263599
v 0.750000 0.811235 0.263599
v -0.750000 0.811235 0.263599
v -0.750000 0.811235 -0.263599
v -0.644641 0.808837 -0.263599
v -0.644641 0.808837 0.263599
v 0.644641 0.808837 -0.263599
v 0.644641 0.808837 0.263599
v -0.632577 0.898572 0.280486
v -0.632577 1.369572 0.280486
v -0.632577 0.898572 -0.280486
v -0.632577 1.369572 -0.280486
v -0.401749 0.898572 0.280486
v -0.401749 1.369572 0.280486
v -0.401749 0.898572 -0.280486
v -0.401749 1.369572 -0.280486
v -0.115209 0.993771 -0.169821
v -0.115209 1.411650 -0.169821
v -0.115209 0.993771 -0.235415
v -0.115209 1.411650 -0.235415
v 0.413232 0.993771 -0.169821
v 0.413232 1.411650 -0.169821
v 0.413232 0.993771 -0.235415
v 0.413232 1.411650 -0.235415
v 0.014219 1.217128 -0.259068
v 0.014219 1.058104 -0.259068
v 0.283805 1.217128 -0.259068
v 0.283805 1.058104 -0.259068
v 0.014219 1.217128 -0.318385
v 0.014219 1.058104 -0.318385
v 0.283805 1.217128 -0.318385
v 0.283805 1.058104 -0.318385
v 0.196786 1.037944 -0.261599
v 0.101238 1.037944 -0.261599
v 0.196786 1.037944 -0.315854
v 0.101238 1.037944 -0.315854
v 0.196786 0.925052 -0.261599
v 0.101238 0.925052 -0.261599
v 0.196786 0.925052 -0.315854
v 0.101238 0.925052 -0.315854
v 0.363626 0.891453 -0.261599
v -0.065602 0.891453 -0.261599
v 0.363626 0.891453 -0.315854
v -0.065602 0.891453 -0.315854
v -0.088209 1.020770 -0.169821
v -0.088209 1.384651 -0.169821
v 0.386233 1.384651 -0.169821
v 0.386233 1.020770 -0.169821
v -0.088209 1.020770 -0.218631
v -0.088209 1.384651 -0.218631
v 0.386233 1.384651 -0.218631
v 0.386233 1.020770 -0.218631
vn -1.000000 0.000000 0.000000
vn 0.000000 0.000000 -1.000000
vn 1.000000 0.000000 0.000000
vn 0.000000 0.000000 1.000000
vn 0.000000 -1.000000 0.000000
vn 0.000000 1.000000 0.000000
vn -0.022800 -0.999700 0.000000
vn 0.000000 -0.999600 -0.027800
vn 0.022800 -0.999700 0.000000
vn 0.000000 -0.999600 0.027800
vn -0.179800 0.000000 -0.983700
vn 0.179800 0.000000 -0.983700
vn 0.000000 -0.345100 -0.938600
vn 0.000000 0.120700 -0.992700
vn -0.225700 -0.974200 0.000000
vn 0.000000 -0.124600 -0.992200
vn 0.000000 -0.124600 0.992200
vn 0.225700 -0.974200 0.000000
vn 0.197400 0.980300 0.000000
vn -0.197400 0.980300 0.000000
usemtl None
s off
f 44//1 34//1 3//1 19//1
f 40//2 35//2 7//2 11//2
f 42//3 36//3 5//3 23//3
f 38//4 33//4 1//4 15//4
f 31//5 11//5 7//5 24//5
f 27//6 9//6 4//6 18//6
f 21//6 8//6 10//6 25//6
f 25//6 10//6 9//6 27//6
f 19//5 3//5 12//5 29//5
f 44//7 45//7 46//7 43//7
f 36//4 37//4 16//4 5//4
f 42//2 23//2 32//2 48//2
f 34//2 39//2 12//2 3//2
f 29//4 45//4 44//4 19//4
f 45//3 29//3 12//3 39//3
f 30//2 20//2 43//2 46//2
f 1//5 20//5 30//5 15//5
f 46//3 38//3 15//3 30//3
f 13//6 26//6 28//6 14//6
f 26//6 25//6 27//6 28//6
f 6//6 22//6 26//6 13//6
f 22//6 21//6 25//6 26//6
f 14//6 28//6 17//6 2//6
f 28//6 27//6 18//6 17//6
f 16//5 32//5 23//5 5//5
f 47//1 40//1 11//1 31//1
f 35//3 41//3 24//3 7//3
f 48//1 32//1 16//1 37//1
f 33//1 43//1 20//1 1//1
f 41//4 47//4 31//4 24//4
f 17//1 18//1 44//1 43//1
f 2//1 17//1 43//1 33//1
f 21//3 22//3 42//3 41//3
f 8//3 21//3 41//3 35//3
f 9//2 10//2 40//2 39//2
f 4//2 9//2 39//2 34//2
f 13//4 14//4 38//4 37//4
f 6//4 13//4 37//4 36//4
f 14//4 2//4 33//4 38//4
f 22//3 6//3 36//3 42//3
f 10//2 8//2 35//2 40//2
f 18//1 4//1 34//1 44//1
f 47//8 45//8 39//8 40//8
f 41//9 42//9 48//9 47//9
f 37//10 38//10 46//10 48//10
f 46//5 45//5 47//5 48//5
f 50//1 52//1 51//1 49//1
f 52//2 56//2 55//2 51//2
f 56//3 54//3 53//3 55//3
f 54//4 50//4 49//4 53//4
f 49//5 51//5 55//5 53//5
f 54//6 56//6 52//6 50//6
f 58//1 60//1 59//1 57//1
f 59//11 60//11 65//11 66//11
f 64//3 62//3 61//3 63//3
f 58//4 57//4 85//4 86//4
f 57//5 59//5 63//5 61//5
f 62//6 64//6 60//6 58//6
f 65//6 67//6 71//6 69//6
f 64//12 63//12 68//12 67//12
f 63//13 59//13 66//13 68//13
f 60//14 64//14 67//14 65//14
f 69//2 71//2 72//2 70//2
f 67//3 68//3 72//3 71//3
f 66//1 65//1 69//1 70//1
f 66//15 70//15 76//15 74//15
f 74//1 76//1 80//1 78//1
f 70//16 72//16 75//16 76//16
f 68//17 66//17 74//17 73//17
f 72//18 68//18 73//18 75//18
f 79//19 77//19 81//19 83//19
f 76//2 75//2 79//2 80//2
f 75//3 73//3 77//3 79//3
f 73//4 74//4 78//4 77//4
f 81//5 82//5 84//5 83//5
f 77//4 78//4 82//4 81//4
f 78//20 80//20 84//20 82//20
f 80//2 79//2 83//2 84//2
f 85//6 88//6 92//6 89//6
f 57//4 61//4 88//4 85//4
f 62//4 58//4 86//4 87//4
f 61//4 62//4 87//4 88//4
f 91//4 90//4 89//4 92//4
f 88//1 87//1 91//1 92//1
f 87//5 86//5 90//5 91//5
f 86//3 85//3 89//3 90//3
