# Blender v2.76 (sub 0) OBJ File: ''
# www.blender.org
mtllib door.mtl
o Cube
v 0.500000 0.000000 -0.077379
v 0.500000 0.000000 0.077379
v -0.500000 0.000000 0.077379
v -0.500000 0.000000 -0.077379
v 0.500000 1.879642 -0.077379
v 0.500000 1.879642 0.077379
v -0.500000 1.879642 0.077379
v -0.500000 1.879642 -0.077379
v 0.500000 0.939821 -0.077379
v 0.500000 0.939821 0.077379
v -0.500000 0.939821 0.077379
v -0.500000 0.939821 -0.077379
v 0.400000 1.033803 0.077379
v 0.400000 1.785660 0.077379
v -0.400000 1.785660 0.077379
v -0.400000 1.033803 0.077379
v 0.400000 0.093982 0.077379
v 0.400000 0.845839 0.077379
v -0.400000 0.845839 0.077379
v -0.400000 0.093982 0.077379
v 0.400000 1.785660 0.031118
v 0.400000 1.033803 0.031118
v -0.400000 1.785660 0.031117
v -0.400000 1.033803 0.031117
v 0.400000 0.845839 0.031118
v 0.400000 0.093982 0.031117
v -0.400000 0.845839 0.031117
v -0.400000 0.093982 0.031117
v -0.500000 0.000000 -0.077379
v -0.500000 0.000000 0.077379
v 0.500000 0.000000 0.077379
v 0.500000 0.000000 -0.077379
v -0.500000 1.879642 -0.077379
v -0.500000 1.879642 0.077379
v 0.500000 1.879642 0.077379
v 0.500000 1.879642 -0.077379
v -0.500000 0.939821 -0.077379
v -0.500000 0.939821 0.077379
v 0.500000 0.939821 0.077379
v 0.500000 0.939821 -0.077379
v -0.400000 1.033803 0.077379
v -0.400000 1.785660 0.077379
v 0.400000 1.785660 0.077379
v 0.400000 1.033803 0.077379
v -0.400000 0.093982 0.077379
v -0.400000 0.845839 0.077379
v 0.400000 0.845839 0.077379
v 0.400000 0.093982 0.077379
v -0.400000 1.785660 0.031118
v -0.400000 1.033803 0.031118
v 0.400000 1.785660 0.031117
v 0.400000 1.033803 0.031117
v -0.400000 0.845839 0.031118
v -0.400000 0.093982 0.031117
v 0.400000 0.845839 0.031117
v 0.400000 0.093982 0.031117
v 0.500000 0.000000 0.077379
v 0.500000 0.000000 -0.077379
v -0.500000 0.000000 -0.077379
v -0.500000 0.000000 0.077379
v 0.500000 1.879642 0.077379
v 0.500000 1.879642 -0.077379
v -0.500000 1.879642 -0.077379
v -0.500000 1.879642 0.077379
v 0.500000 0.939821 0.077379
v 0.500000 0.939821 -0.077379
v -0.500000 0.939821 -0.077379
v -0.500000 0.939821 0.077379
v 0.400000 1.033803 -0.077379
v 0.400000 1.785660 -0.077379
v -0.400000 1.785660 -0.077379
v -0.400000 1.033803 -0.077379
v 0.400000 0.093982 -0.077379
v 0.400000 0.845839 -0.077379
v -0.400000 0.845839 -0.077379
v -0.400000 0.093982 -0.077379
v 0.400000 1.785660 -0.031118
v 0.400000 1.033803 -0.031118
v -0.400000 1.785660 -0.031117
v -0.400000 1.033803 -0.031117
v 0.400000 0.845839 -0.031118
v 0.400000 0.093982 -0.031117
v -0.400000 0.845839 -0.031117
v -0.400000 0.093982 -0.031117
v 0.500000 0.000000 0.000000
v -0.500000 0.000000 0.000000
v 0.500000 1.879642 0.000000
v -0.500000 1.879642 0.000000
v -0.500000 0.939821 0.000000
v 0.500000 0.939821 0.000000
v -0.500000 0.000000 0.077379
v -0.500000 0.000000 -0.077379
v 0.500000 0.000000 -0.077379
v 0.500000 0.000000 0.077379
v -0.500000 1.879642 0.077379
v -0.500000 1.879642 -0.077379
v 0.500000 1.879642 -0.077379
v 0.500000 1.879642 0.077379
v -0.500000 0.939821 0.077379
v -0.500000 0.939821 -0.077379
v 0.500000 0.939821 -0.077379
v 0.500000 0.939821 0.077379
v -0.400000 1.033803 -0.077379
v -0.400000 1.785660 -0.077379
v 0.400000 1.785660 -0.077379
v 0.400000 1.033803 -0.077379
v -0.400000 0.093982 -0.077379
v -0.400000 0.845839 -0.077379
v 0.400000 0.845839 -0.077379
v 0.400000 0.093982 -0.077379
v -0.400000 1.785660 -0.031118
v -0.400000 1.033803 -0.031118
v 0.400000 1.785660 -0.031117
v 0.400000 1.033803 -0.031117
v -0.400000 0.845839 -0.031118
v -0.400000 0.093982 -0.031117
v 0.400000 0.845839 -0.031117
v 0.400000 0.093982 -0.031117
v -0.500000 0.000000 0.000000
v 0.500000 0.000000 0.000000
v -0.500000 1.879642 0.000000
v 0.500000 1.879642 0.000000
v 0.500000 0.939821 0.000000
v -0.500000 0.939821 0.000000
vn 0.000000 -1.000000 0.000000
vn 0.000000 1.000000 0.000000
vn 1.000000 0.000000 0.000000
vn -1.000000 -0.000000 -0.000000
vn -0.000000 -0.000000 1.000000
vn -0.000000 -0.000000 -1.000000
usemtl Material
s off
f 85//1 2//1 3//1 86//1
f 87//2 88//2 7//2 6//2
f 90//3 87//3 6//3 10//3
f 89//4 88//4 8//4 12//4
f 86//4 89//4 12//4 4//4
f 85//3 90//3 10//3 2//3
f 14//1 15//1 23//1 21//1
f 6//5 14//5 13//5 10//5
f 7//5 15//5 14//5 6//5
f 11//5 16//5 15//5 7//5
f 10//5 13//5 16//5 11//5
f 16//2 13//2 22//2 24//2
f 10//5 18//5 17//5 2//5
f 11//5 19//5 18//5 10//5
f 3//5 20//5 19//5 11//5
f 2//5 17//5 20//5 3//5
f 22//5 21//5 23//5 24//5
f 26//5 25//5 27//5 28//5
f 19//3 20//3 28//3 27//3
f 17//4 18//4 25//4 26//4
f 15//3 16//3 24//3 23//3
f 20//2 17//2 26//2 28//2
f 13//4 14//4 21//4 22//4
f 18//1 19//1 27//1 25//1
f 1//3 9//3 90//3 85//3
f 3//4 11//4 89//4 86//4
f 11//4 7//4 88//4 89//4
f 9//3 5//3 87//3 90//3
f 5//2 8//2 88//2 87//2
f 1//1 85//1 86//1 4//1
f 119//1 120//1 31//1 30//1
f 121//2 34//2 35//2 122//2
f 124//4 38//4 34//4 121//4
f 123//3 40//3 36//3 122//3
f 120//3 32//3 40//3 123//3
f 119//4 30//4 38//4 124//4
f 42//1 49//1 51//1 43//1
f 34//5 38//5 41//5 42//5
f 35//5 34//5 42//5 43//5
f 39//5 35//5 43//5 44//5
f 38//5 39//5 44//5 41//5
f 44//2 52//2 50//2 41//2
f 38//5 30//5 45//5 46//5
f 39//5 38//5 46//5 47//5
f 31//5 39//5 47//5 48//5
f 30//5 31//5 48//5 45//5
f 50//5 52//5 51//5 49//5
f 54//5 56//5 55//5 53//5
f 47//4 55//4 56//4 48//4
f 45//3 54//3 53//3 46//3
f 43//4 51//4 52//4 44//4
f 48//2 56//2 54//2 45//2
f 41//3 50//3 49//3 42//3
f 46//1 53//1 55//1 47//1
f 29//4 119//4 124//4 37//4
f 31//3 120//3 123//3 39//3
f 39//3 123//3 122//3 35//3
f 37//4 124//4 121//4 33//4
f 33//2 121//2 122//2 36//2
f 29//1 32//1 120//1 119//1
f 85//1 86//1 59//1 58//1
f 87//2 62//2 63//2 88//2
f 90//3 66//3 62//3 87//3
f 89//4 68//4 64//4 88//4
f 86//4 60//4 68//4 89//4
f 85//3 58//3 66//3 90//3
f 70//1 77//1 79//1 71//1
f 62//6 66//6 69//6 70//6
f 63//6 62//6 70//6 71//6
f 67//6 63//6 71//6 72//6
f 66//6 67//6 72//6 69//6
f 72//2 80//2 78//2 69//2
f 66//6 58//6 73//6 74//6
f 67//6 66//6 74//6 75//6
f 59//6 67//6 75//6 76//6
f 58//6 59//6 76//6 73//6
f 78//6 80//6 79//6 77//6
f 82//6 84//6 83//6 81//6
f 75//3 83//3 84//3 76//3
f 73//4 82//4 81//4 74//4
f 71//3 79//3 80//3 72//3
f 76//2 84//2 82//2 73//2
f 69//4 78//4 77//4 70//4
f 74//1 81//1 83//1 75//1
f 57//3 85//3 90//3 65//3
f 59//4 86//4 89//4 67//4
f 67//4 89//4 88//4 63//4
f 65//3 90//3 87//3 61//3
f 61//2 87//2 88//2 64//2
f 57//1 60//1 86//1 85//1
f 119//1 92//1 93//1 120//1
f 121//2 122//2 97//2 96//2
f 124//4 121//4 96//4 100//4
f 123//3 122//3 98//3 102//3
f 120//3 123//3 102//3 94//3
f 119//4 124//4 100//4 92//4
f 104//1 105//1 113//1 111//1
f 96//6 104//6 103//6 100//6
f 97//6 105//6 104//6 96//6
f 101//6 106//6 105//6 97//6
f 100//6 103//6 106//6 101//6
f 106//2 103//2 112//2 114//2
f 100//6 108//6 107//6 92//6
f 101//6 109//6 108//6 100//6
f 93//6 110//6 109//6 101//6
f 92//6 107//6 110//6 93//6
f 112//6 111//6 113//6 114//6
f 116//6 115//6 117//6 118//6
f 109//4 110//4 118//4 117//4
f 107//3 108//3 115//3 116//3
f 105//4 106//4 114//4 113//4
f 110//2 107//2 116//2 118//2
f 103//3 104//3 111//3 112//3
f 108//1 109//1 117//1 115//1
f 91//4 99//4 124//4 119//4
f 93//3 101//3 123//3 120//3
f 101//3 97//3 122//3 123//3
f 99//4 95//4 121//4 124//4
f 95//2 98//2 122//2 121//2
f 91//1 119//1 120//1 94//1
