# Blender v2.75 (sub 0) OBJ File: 'shelf.blend'
# www.blender.org
mtllib shelf.mtl
o Cube
v -0.500000 0.000000 0.200074
v -0.500000 0.000000 -0.199926
v 0.500000 0.000000 -0.199926
v 0.500000 0.000000 0.200074
v -0.500000 2.000000 0.200074
v -0.500000 2.000000 -0.199926
v 0.500000 2.000000 -0.199926
v 0.500000 2.000000 0.200074
v -0.500000 0.333333 0.200074
v -0.500000 0.666667 0.200074
v -0.500000 1.000000 0.200074
v -0.500000 1.333333 0.200074
v -0.500000 1.666667 0.200074
v -0.500000 0.333333 -0.199926
v -0.500000 0.666667 -0.199926
v -0.500000 1.000000 -0.199926
v -0.500000 1.333333 -0.199926
v -0.500000 1.666667 -0.199926
v 0.500000 0.333333 -0.199926
v 0.500000 0.666667 -0.199926
v 0.500000 1.000000 -0.199926
v 0.500000 1.333333 -0.199926
v 0.500000 1.666667 -0.199926
v 0.500000 0.333333 0.200074
v 0.500000 0.666667 0.200074
v 0.500000 1.000000 0.200074
v 0.500000 1.333333 0.200074
v 0.500000 1.666667 0.200074
v -0.480337 1.689863 -0.199926
v -0.480337 1.976804 -0.199926
v 0.480337 1.976804 -0.199926
v 0.480337 1.689863 -0.199926
v -0.480337 0.023196 -0.199926
v -0.480337 0.310137 -0.199926
v 0.480337 0.310137 -0.199926
v 0.480337 0.023196 -0.199926
v -0.480337 0.356530 -0.199926
v -0.480337 0.643470 -0.199926
v 0.480337 0.643470 -0.199926
v 0.480337 0.356530 -0.199926
v -0.480337 0.689863 -0.199926
v -0.480337 0.976804 -0.199926
v 0.480337 0.976804 -0.199926
v 0.480337 0.689863 -0.199926
v -0.480337 1.023196 -0.199926
v -0.480337 1.310137 -0.199926
v 0.480337 1.310137 -0.199926
v 0.480337 1.023196 -0.199926
v -0.480337 1.356530 -0.199926
v -0.480337 1.643470 -0.199926
v 0.480337 1.643470 -0.199926
v 0.480337 1.356530 -0.199926
v -0.480337 1.976804 0.057962
v -0.480337 1.689863 0.057962
v 0.480337 1.976804 0.057962
v 0.480337 1.689863 0.057962
v -0.480337 0.310137 0.057962
v -0.480337 0.023197 0.057962
v 0.480337 0.310137 0.057962
v 0.480337 0.023197 0.057962
v -0.480337 0.643470 0.057962
v -0.480337 0.356530 0.057962
v 0.480337 0.643470 0.057962
v 0.480337 0.356530 0.057962
v -0.480337 0.976804 0.057962
v -0.480337 0.689863 0.057962
v 0.480337 0.976804 0.057962
v 0.480337 0.689863 0.057962
v -0.480337 1.310137 0.057962
v -0.480337 1.023196 0.057962
v 0.480337 1.310137 0.057962
v 0.480337 1.023196 0.057962
v -0.480337 1.643470 0.057962
v -0.480337 1.356530 0.057962
v 0.480337 1.643470 0.057962
v 0.480337 1.356530 0.057962
vn 0.000000 -1.000000 0.000000
vn 0.000000 1.000000 -0.000000
vn -1.000000 -0.000000 -0.000000
vn 0.000000 -0.000000 -1.000000
vn 1.000000 0.000000 0.000000
vn -0.000000 0.000000 1.000000
usemtl Material
s off
f 1//1 2//1 3//1 4//1
f 5//2 8//2 7//2 6//2
f 13//3 5//3 6//3 18//3
f 74//4 73//4 75//4 76//4
f 23//5 7//5 8//5 28//5
f 9//6 1//6 4//6 24//6
f 5//6 13//6 28//6 8//6
f 13//6 12//6 27//6 28//6
f 12//6 11//6 26//6 27//6
f 11//6 10//6 25//6 26//6
f 10//6 9//6 24//6 25//6
f 3//5 19//5 24//5 4//5
f 19//5 20//5 25//5 24//5
f 20//5 21//5 26//5 25//5
f 21//5 22//5 27//5 26//5
f 22//5 23//5 28//5 27//5
f 70//4 69//4 71//4 72//4
f 66//4 65//4 67//4 68//4
f 62//4 61//4 63//4 64//4
f 58//4 57//4 59//4 60//4
f 54//4 53//4 55//4 56//4
f 1//3 9//3 14//3 2//3
f 9//3 10//3 15//3 14//3
f 10//3 11//3 16//3 15//3
f 11//3 12//3 17//3 16//3
f 12//3 13//3 18//3 17//3
f 34//1 35//1 59//1 57//1
f 6//4 30//4 29//4 18//4
f 7//4 31//4 30//4 6//4
f 23//4 32//4 31//4 7//4
f 18//4 29//4 32//4 23//4
f 37//5 38//5 61//5 62//5
f 14//4 34//4 33//4 2//4
f 19//4 35//4 34//4 14//4
f 3//4 36//4 35//4 19//4
f 2//4 33//4 36//4 3//4
f 30//1 31//1 55//1 53//1
f 15//4 38//4 37//4 14//4
f 20//4 39//4 38//4 15//4
f 19//4 40//4 39//4 20//4
f 14//4 37//4 40//4 19//4
f 33//5 34//5 57//5 58//5
f 16//4 42//4 41//4 15//4
f 21//4 43//4 42//4 16//4
f 20//4 44//4 43//4 21//4
f 15//4 41//4 44//4 20//4
f 29//5 30//5 53//5 54//5
f 17//4 46//4 45//4 16//4
f 22//4 47//4 46//4 17//4
f 21//4 48//4 47//4 22//4
f 16//4 45//4 48//4 21//4
f 52//2 49//2 74//2 76//2
f 18//4 50//4 49//4 17//4
f 23//4 51//4 50//4 18//4
f 22//4 52//4 51//4 23//4
f 17//4 49//4 52//4 22//4
f 41//5 42//5 65//5 66//5
f 31//3 32//3 56//3 55//3
f 38//1 39//1 63//1 61//1
f 45//5 46//5 69//5 70//5
f 35//3 36//3 60//3 59//3
f 42//1 43//1 67//1 65//1
f 49//5 50//5 73//5 74//5
f 32//2 29//2 54//2 56//2
f 39//3 40//3 64//3 63//3
f 46//1 47//1 71//1 69//1
f 36//2 33//2 58//2 60//2
f 43//3 44//3 68//3 67//3
f 50//1 51//1 75//1 73//1
f 40//2 37//2 62//2 64//2
f 47//3 48//3 72//3 71//3
f 44//2 41//2 66//2 68//2
f 51//3 52//3 76//3 75//3
f 48//2 45//2 70//2 72//2
